<svg xmlns="http://www.w3.org/2000/svg" xmlns:xlink="http://www.w3.org/1999/xlink" width="360" height="360" viewBox="0 0 360 360">
  <defs>
    <style>
      .cls-1 {
        clip-path: url(#clip-Artboard_1);
      }

      .cls-2, .cls-3 {
        fill: #24ff00;
      }

      .cls-3 {
        stroke: #000;
        stroke-width: 0.09px;
      }

      .cls-4 {
        fill: #fff;
      }
    </style>
    <clipPath id="clip-Artboard_1">
      <rect width="360" height="360"/>
    </clipPath>
  </defs>
  <g id="Artboard_1" data-name="Artboard – 1" class="cls-1">
    <rect class="cls-4" width="360" height="360"/>
    <g id="Group_3" data-name="Group 3" transform="translate(144.087 145.922)">
      <path id="Path_24" data-name="Path 24" class="cls-2" d="M57.09,55.973,64.275,1.118,66.5,64.746,2.869,66.968Z" transform="translate(3.191 1.455)"/>
      <path id="Path_25" data-name="Path 25" class="cls-3" d="M46.342,46.425a4.335,4.335,0,0,0,.779-1.306,15.3,15.3,0,0,0,.668-2.067,53.215,53.215,0,0,0,1.087-5.992c.625-4.665,1.061-10.47,1.365-16.134s.476-11.192.572-15.3c.048-2.055.077-3.757.094-4.944q0-.072,0-.142l.078.46c.233,1.374.56,3.343.937,5.721.754,4.756,1.706,11.147,2.5,17.689S55.855,37.641,55.977,43a46.72,46.72,0,0,1-.246,6.834,12.5,12.5,0,0,1-.49,2.3,3.337,3.337,0,0,1-.75,1.35,4.458,4.458,0,0,1-1.4.809A16.594,16.594,0,0,1,50.76,55a58.9,58.9,0,0,1-6.867,1.083c-5.366.585-12.05.913-18.58,1.089s-12.9.2-17.64.181c-2.37-.009-4.331-.03-5.7-.048L1.6,57.3l.074-.012c1.162-.192,2.827-.472,4.837-.821,4.021-.7,9.427-1.675,14.966-2.789s11.211-2.366,15.764-3.615c2.276-.625,4.276-1.249,5.841-1.856a18.306,18.306,0,0,0,2.007-.9A5.148,5.148,0,0,0,46.342,46.425Z" transform="translate(0 0)"/>
      <path id="Path_26" data-name="Path 26" d="M33.581,33.467l-4.048-50.63L37.988,36.5-11.481,47.6Z" transform="translate(21.317 20.801)"/>
    </g>
  </g>
</svg>
